<svg preserveAspectRatio="none" overflow="visible" style="display: block;" width="15" height="17.345" viewBox="0 0 15 17.345" fill="none" xmlns="http://www.w3.org/2000/svg">
<g id="Group">
<g id="Vector">
</g>
<path id="Vector_2" d="M10.8333 0C11.0543 0 11.2663 0.0877973 11.4226 0.244078C11.5789 0.400358 11.6667 0.61232 11.6667 0.833333V1.66667H13.3333C13.7754 1.66667 14.1993 1.84226 14.5118 2.15482C14.8244 2.46738 15 2.89131 15 3.33333V13.3333C15 13.7754 14.8244 14.1993 14.5118 14.5118C14.1993 14.8244 13.7754 15 13.3333 15H1.66667C1.22464 15 0.800716 14.8244 0.488155 14.5118C0.175595 14.1993 0 13.7754 0 13.3333V3.33333C0 2.89131 0.175595 2.46738 0.488155 2.15482C0.800716 1.84226 1.22464 1.66667 1.66667 1.66667H3.33333V0.833333C3.33333 0.61232 3.42113 0.400358 3.57741 0.244078C3.73369 0.0877973 3.94565 0 4.16667 0C4.38768 0 4.59964 0.0877973 4.75592 0.244078C4.9122 0.400358 5 0.61232 5 0.833333V1.66667H10V0.833333C10 0.61232 10.0878 0.400358 10.2441 0.244078C10.4004 0.0877973 10.6123 0 10.8333 0ZM13.3333 3.33333H1.66667V13.3333H13.3333V3.33333ZM9.85333 5.31583C10.0105 5.16403 10.221 5.08004 10.4395 5.08194C10.658 5.08384 10.867 5.17148 11.0215 5.32598C11.176 5.48049 11.2637 5.6895 11.2656 5.908C11.2675 6.1265 11.1835 6.337 11.0317 6.49417L6.91333 10.6133C6.83517 10.6916 6.74235 10.7536 6.64018 10.796C6.53802 10.8383 6.42851 10.8601 6.31792 10.8601C6.20732 10.8601 6.09781 10.8383 5.99565 10.796C5.89348 10.7536 5.80067 10.6916 5.7225 10.6133L3.96083 8.85C3.80903 8.69283 3.72504 8.48233 3.72694 8.26383C3.72884 8.04534 3.81648 7.83632 3.97098 7.68182C4.12549 7.52731 4.3345 7.43967 4.553 7.43777C4.7715 7.43587 4.982 7.51987 5.13917 7.67167L6.31833 8.85L9.85333 5.31583Z" fill="#FAFAFA"/>
</g>
</svg>
